<svg width="143" height="96" viewBox="0 0 143 96" fill="none" xmlns="http://www.w3.org/2000/svg">
<path fill-rule="evenodd" clip-rule="evenodd" d="M10.7126 7.72414C12.5704 4.04407 15.5009 1.44746 19.2088 0.367816C20.2714 0.0584371 21.0774 0.0125396 26.9662 0H33.9848V5.88506V11.7701H30.6602C29.9837 11.7701 29.4409 11.7638 28.996 11.7586C27.3333 11.7392 27.0362 11.7357 26.2274 12.1379C25.5254 12.4868 24.7535 13.0521 24.3804 13.6092C24.1442 13.9618 23.964 14.2212 23.8256 14.5012C23.2576 15.6505 23.3958 17.1454 23.2722 26.8506C23.1937 33.0125 22.979 38.2815 22.9028 38.6207C22.1074 42.1645 20.2617 44.897 17.7312 46.3448C17.1668 46.6676 16.0825 47.2014 15.1454 47.4483C14.2081 47.6954 13.2984 48.1107 13.2984 48.1839C13.2984 48.2573 13.755 48.4167 14.4066 48.5517C18.2795 49.3543 21.7854 52.3604 22.9028 56.2759C23.1536 57.1541 23.1665 58.4403 23.2284 64.6019C23.2404 65.7999 23.2543 67.1822 23.2722 68.7816C23.3833 78.7627 23.2458 80.3149 23.8365 81.5108C23.9742 81.7894 24.1513 82.0488 24.3804 82.3908C24.7535 82.9479 25.5254 83.5132 26.2274 83.8621C27.0362 84.2643 27.3333 84.2608 28.996 84.2414C29.4409 84.2362 29.9837 84.2299 30.6602 84.2299H33.9848V90.1149V96H27.3356C19.8855 96 19.1006 95.7767 16.623 94.5287C13.9925 93.2039 12.1716 91.1661 10.7126 88.2759C10.4199 87.6959 10.1907 87.2505 10.0101 86.7863C9.31214 84.9927 9.34008 82.9194 9.23499 71.7241L8.86559 59.2184L8.12679 57.7471C6.88162 55.2246 4.55643 53.5419 1.4776 52.9655L0 52.5977V48.1839V43.7701L0.3694 43.4023C3.46204 42.7692 4.41157 42.5141 5.91039 41.1954C6.97301 40.2605 7.94912 38.9044 8.49619 37.5172C8.82134 36.6929 9.12269 35.1906 9.23499 23.908C9.34395 12.989 9.31675 10.9764 9.99553 9.2364C10.178 8.76855 10.4116 8.32041 10.7126 7.72414ZM108.603 11.7701V5.88506V0H115.253C122.671 0.00328908 123.534 0.249577 125.965 1.47126C128.04 2.5137 129.457 3.9188 130.767 5.88506C133.299 9.68497 133.344 10.1515 133.353 24.2759C133.361 36.4019 133.437 36.9141 134.461 38.6207C136.164 41.4581 137.977 42.6088 141.849 43.4023L142.588 43.7701V48.1839V52.5977L141.111 52.9655C138.032 53.5419 135.707 55.2246 134.461 57.7471L133.723 59.2184L133.353 71.7241C133.271 80.3668 133.145 84.7489 132.984 85.3333C131.858 89.413 129.424 92.7911 125.965 94.5287C123.534 95.7504 122.671 95.9967 115.253 96H108.603V90.1149V84.2299H111.928C114.75 84.2262 115.297 84.1836 115.991 83.8621C117.064 83.3656 117.986 82.2006 118.577 80.9195C118.6 80.8706 118.622 80.8245 118.643 80.7799C119.064 79.8929 119.206 79.5918 119.316 68.7816C119.428 57.8009 119.623 57.2118 120.053 55.9136L120.055 55.908C120.606 54.2438 121.713 52.366 123.01 51.1264C124.189 49.9997 126.15 48.8944 127.812 48.5517C127.882 48.5375 127.952 48.523 128.023 48.5085C128.64 48.3825 129.29 48.2497 129.29 48.1839C129.29 48.1107 128.38 47.6954 127.443 47.4483C124.368 46.6379 122.201 44.9706 120.794 42.2989C119.454 39.756 119.453 39.6655 119.332 28.6807C119.327 28.2133 119.322 27.7262 119.316 27.2184C119.195 16.407 119.056 16.1099 118.617 15.1655C118.604 15.1378 118.591 15.1095 118.577 15.0805C117.986 13.7994 117.064 12.6344 115.991 12.1379C115.297 11.8164 114.75 11.7738 111.928 11.7701H108.603Z" fill="black"/>
<path d="M46.9137 48.1839V76.5057H53.1935H59.1039V68.4138V60.3218L62.0591 56.6437L65.0143 52.9655L73.1411 64.7356L80.8985 76.5057H88.2865H95.3051L94.9357 76.1379C94.7336 75.8269 90.2511 68.6237 84.5925 60.3218C78.9339 52.0202 73.9304 45.3725 73.8799 45.2414C73.7996 45.0325 77.5126 40.4776 91.6111 23.5402L95.3051 19.4943H87.9171H80.5291L70.1859 32C63.0429 40.7313 59.7869 44.4601 59.4733 44.5057L59.1039 44.8736V32V19.4943H53.1935H46.9137V48.1839Z" fill="black"/>
</svg>
