<svg width="368" height="249" viewBox="0 0 368 249" fill="none" xmlns="http://www.w3.org/2000/svg">
<path fill-rule="evenodd" clip-rule="evenodd" d="M307.974 73.8952C307.976 74.0073 307.977 74.1189 307.978 74.2302L307.974 73.8952ZM121.078 124.977V198.437H137.285H152.539V177.448V156.46L160.166 146.92L167.793 137.379L188.767 167.908L208.788 198.437H227.855H245.969L245.016 197.483C244.959 197.396 244.774 197.1 244.47 196.615C241.96 192.608 231.349 175.668 218.321 156.46C207.342 140.271 197.318 126.508 192.963 120.529C191.526 118.555 190.706 117.429 190.674 117.345C190.466 116.803 200.049 104.989 236.435 61.0575L245.969 50.5632H226.902H207.834L181.14 83C162.705 105.647 154.302 115.318 153.492 115.437L152.539 116.391V83V50.5632H137.285H121.078V124.977Z" fill="#F2F2F2"/>
<path fill-rule="evenodd" clip-rule="evenodd" d="M27.6477 20.0345C32.4423 10.4893 40.0055 3.75434 49.5751 0.954023C52.3176 0.151571 54.3978 0.0325246 69.5959 0H87.7098V15.2644V30.5287H79.1295C77.3836 30.5287 75.9828 30.5123 74.8345 30.4989C70.5434 30.4486 69.7767 30.4396 67.6891 31.4828C65.8773 32.3876 63.8854 33.8539 62.9223 35.2989C62.3129 36.2134 61.8476 36.8863 61.4906 37.6124C60.0246 40.5935 60.3812 44.4708 60.0622 69.6437C59.8596 85.6261 59.3056 99.2927 59.1088 100.172C57.0561 109.364 52.2926 116.452 45.7617 120.207C44.3051 121.044 41.5067 122.429 39.0881 123.069C36.669 123.71 34.3212 124.787 34.3212 124.977C34.3212 125.167 35.4998 125.581 37.1813 125.931C47.1769 128.013 56.2249 135.81 59.1088 145.966C59.7562 148.243 59.7895 151.58 59.9492 167.561C59.9803 170.668 60.0161 174.254 60.0622 178.402C60.349 204.291 59.994 208.317 61.5187 211.419C61.8739 212.141 62.3311 212.814 62.9223 213.701C63.8854 215.146 65.8773 216.612 67.6891 217.517C69.7767 218.56 70.5434 218.551 74.8345 218.501C75.9829 218.488 77.3836 218.471 79.1295 218.471H87.7098V233.736V249H70.5492C51.3218 249 49.2958 248.421 42.9016 245.184C36.1127 241.747 31.4133 236.462 27.6477 228.966C26.8922 227.461 26.3006 226.306 25.8345 225.102C24.0333 220.45 24.1054 215.072 23.8342 186.034L22.8808 153.598L20.9741 149.782C17.7605 143.239 11.7595 138.874 3.81347 137.379L0 136.425V124.977V113.529L0.953368 112.575C8.93503 110.932 11.3856 110.271 15.2539 106.851C17.9963 104.426 20.5156 100.908 21.9275 97.3103C22.7666 95.1723 23.5444 91.2757 23.8342 62.0115C24.1154 33.6902 24.0452 28.4699 25.797 23.9569C26.2681 22.7434 26.8709 21.5811 27.6477 20.0345ZM280.29 30.5287V15.2644V0H297.451C316.596 0.00853105 318.823 0.647341 325.098 3.81609C330.454 6.5199 334.111 10.1644 337.492 15.2644C344.027 25.1204 344.143 26.3305 344.166 62.9655C344.186 94.4174 344.382 95.7459 347.026 100.172C351.421 107.532 356.099 110.517 366.093 112.575L368 113.529V124.977V136.425L364.187 137.379C356.24 138.874 350.24 143.239 347.026 149.782L345.119 153.598L344.166 186.034C343.954 208.451 343.629 219.817 343.212 221.333C340.308 231.915 334.025 240.677 325.098 245.184C318.823 248.353 316.596 248.991 297.451 249H280.29V233.736V218.471H288.87C296.153 218.462 297.565 218.351 299.358 217.517C302.126 216.23 304.506 213.208 306.031 209.885C306.089 209.758 306.146 209.639 306.2 209.523C307.286 207.222 307.655 206.441 307.938 178.402C308.226 149.921 308.73 148.393 309.84 145.026L309.845 145.011C311.268 140.695 314.125 135.824 317.471 132.609C320.513 129.687 325.575 126.82 329.865 125.931C330.044 125.894 330.227 125.857 330.41 125.819C332.002 125.492 333.679 125.148 333.679 124.977C333.679 124.787 331.331 123.71 328.912 123.069C320.976 120.967 315.383 116.643 311.751 109.713C308.295 103.117 308.292 102.882 307.98 74.3905C307.966 73.1783 307.953 71.9149 307.938 70.5977C307.625 42.5557 307.268 41.785 306.133 39.3355C306.1 39.2637 306.066 39.1904 306.031 39.1149C304.506 35.7921 302.126 32.7704 299.358 31.4828C297.565 30.6488 296.153 30.5383 288.87 30.5287H280.29Z" fill="#0074FC"/>
</svg>
